<svg width="32" height="32" viewBox="0 0 32 32" fill="none" xmlns="http://www.w3.org/2000/svg">
<path d="M24.381 8.38077H25.9048M6.8572 0.761719H25.1429C28.5092 0.761719 31.2382 3.49065 31.2382 6.85696V25.1427C31.2382 28.509 28.5092 31.2379 25.1429 31.2379H6.8572C3.49089 31.2379 0.761963 28.509 0.761963 25.1427V6.85696C0.761963 3.49065 3.49089 0.761719 6.8572 0.761719ZM16.0001 22.0951C12.6338 22.0951 9.90482 19.3661 9.90482 15.9998C9.90482 12.6335 12.6338 9.90458 16.0001 9.90458C19.3664 9.90458 22.0953 12.6335 22.0953 15.9998C22.0953 19.3661 19.3664 22.0951 16.0001 22.0951Z" stroke="#F2F2F2"/>
</svg>
