<svg width="32" height="29" viewBox="0 0 32 29" fill="none" xmlns="http://www.w3.org/2000/svg">
<path d="M31.1911 1.04785L31.69 1.01477C31.6767 0.814203 31.5446 0.641096 31.3547 0.575351C31.1647 0.509607 30.9538 0.564009 30.8194 0.713448L31.1911 1.04785ZM29.5176 7.489C29.5176 7.21286 29.2937 6.989 29.0176 6.989C28.7415 6.989 28.5176 7.21286 28.5176 7.489H29.5176ZM16.0001 9.4288V9.9288H16.5001V9.4288H16.0001ZM2.93547 1.04785L3.40373 0.872527C3.33396 0.686192 3.16035 0.558955 2.96165 0.548537C2.76296 0.538119 2.57699 0.646503 2.48812 0.824521L2.93547 1.04785ZM11.4286 20.8574L11.7825 21.2107C11.9048 21.0881 11.9551 20.911 11.9152 20.7424C11.8754 20.5739 11.7512 20.4379 11.587 20.3831L11.4286 20.8574ZM0.761963 24.9934V24.4934C0.541695 24.4934 0.347374 24.6376 0.283469 24.8484C0.219563 25.0592 0.30113 25.2869 0.484316 25.4093L0.761963 24.9934ZM27.3547 3.16678L26.9839 3.50212L27.164 3.70136L27.4296 3.66114L27.3547 3.16678ZM30.6922 1.08093C30.8064 2.80367 30.7077 3.92595 30.3936 4.8115C30.0831 5.6866 29.5444 6.38113 28.6717 7.21745L29.3635 7.93948C30.2868 7.05474 30.9508 6.23184 31.336 5.14583C31.7176 4.07027 31.8076 2.78777 31.69 1.01477L30.6922 1.08093ZM29.5176 9.07505V7.57846H28.5176V9.07505H29.5176ZM29.5176 7.57846V7.489H28.5176V7.57846H29.5176ZM15.5001 7.90499V9.4288H16.5001V7.90499H15.5001ZM22.5864 0.547852C18.6343 0.547852 15.5001 3.99884 15.5001 7.90499H16.5001C16.5001 4.49882 19.2375 1.54785 22.5864 1.54785V0.547852ZM28.5176 9.07505C28.5176 18.8025 20.3591 27.2145 10.6667 27.2145V28.2145C20.9309 28.2145 29.5176 19.3351 29.5176 9.07505H28.5176ZM2.46722 1.22318C3.60573 4.26388 7.91195 9.9288 16.0001 9.9288V8.9288C8.43889 8.9288 4.43873 3.63681 3.40373 0.872527L2.46722 1.22318ZM2.48812 0.824521C0.267512 5.27261 -0.0910979 9.56337 1.42278 13.1862C2.93666 16.8091 6.28223 19.6664 11.2703 21.3316L11.587 20.3831C6.79423 18.7831 3.71971 16.0893 2.34546 12.8006C0.971201 9.51192 1.25641 5.53058 3.38283 1.27118L2.48812 0.824521ZM11.0748 20.5041C9.697 21.884 5.81676 24.4934 0.761963 24.4934V25.4934C6.14002 25.4934 10.2623 22.7332 11.7825 21.2107L11.0748 20.5041ZM27.7256 2.83143C26.4582 1.42971 24.6248 0.547852 22.5864 0.547852V1.54785C24.3302 1.54785 25.8978 2.30101 26.9839 3.50212L27.7256 2.83143ZM27.4296 3.66114C28.9452 3.4316 30.4386 2.63191 31.5628 1.38225L30.8194 0.713448C29.844 1.79771 28.5577 2.47889 27.2799 2.67241L27.4296 3.66114ZM0.484316 25.4093C3.85283 27.6584 7.09254 28.2145 10.6667 28.2145V27.2145C7.21655 27.2145 4.19162 26.6822 1.03961 24.5776L0.484316 25.4093Z" fill="#F2F2F2"/>
</svg>
